<svg xmlns="http://www.w3.org/2000/svg" width="80" height="80" viewBox="215.5 810.141 80 80"><circle fill="#2DAAE1" cx="255.5" cy="850.141" r="40"/><path fill="#FFF" d="M281.147 834.23c-1.887.836-3.913 1.402-6.044 1.656 2.174-1.302 3.84-3.365 4.626-5.82-2.033 1.205-4.285 2.08-6.685 2.553-1.918-2.047-4.654-3.323-7.68-3.323-5.81 0-10.522 4.71-10.522 10.522 0 .822.093 1.626.27 2.397-8.745-.44-16.498-4.63-21.687-10.994-.906 1.555-1.425 3.362-1.425 5.29 0 3.65 1.858 6.872 4.68 8.758-1.723-.053-3.345-.525-4.765-1.314v.134c0 5.1 3.626 9.35 8.44 10.317-.883.243-1.81.37-2.77.37-.68 0-1.34-.064-1.982-.186 1.34 4.18 5.225 7.223 9.83 7.31-3.603 2.822-8.14 4.505-13.07 4.505-.848 0-1.687-.05-2.51-.15 4.657 2.987 10.187 4.73 16.13 4.73 19.353 0 29.938-16.034 29.938-29.94 0-.455-.01-.908-.03-1.36 2.06-1.49 3.846-3.343 5.256-5.455z"/></svg>