<svg xmlns="http://www.w3.org/2000/svg" width="80" height="80" viewBox="77.5 672.5 80 80"><g fill="#ED5347"><path d="M116.06 672.5h2.893c8.954.363 17.77 3.75 24.557 9.62 8.434 7.14 13.594 17.9 13.99 28.937v2.896c-.356 8.887-3.697 17.634-9.487 24.396-7.136 8.53-17.97 13.742-29.073 14.15h-2.887c-8.96-.37-17.78-3.75-24.57-9.625-8.434-7.144-13.587-17.907-13.983-28.94v-2.894c.403-11.03 5.557-21.785 13.987-28.922 6.793-5.874 15.613-9.26 24.573-9.62m-13.73 26.233c-2.64.617-4.75 2.987-4.82 5.734-.023 5.127 0 10.253-.013 15.377.07 2.2 1.057 4.51 2.967 5.72 1.287.848 2.87 1.064 4.38 1.027 8.55-.015 17.097-.004 25.647-.007 1.718-.03 3.455-.567 4.81-1.637 1.44-1.127 2.19-2.97 2.206-4.77-.003-5.004-.007-10.012 0-15.018-.053-1.81-.73-3.644-2-4.957-1.22-1.226-2.973-1.778-4.673-1.786h-26.32c-.74.013-1.475.12-2.182.32z"/><path d="M112.25 704.957c4.316 2.493 8.593 5.05 12.9 7.56-4.293 2.536-8.603 5.044-12.893 7.583-.014-5.047-.004-10.096-.007-15.143z"/></g><path fill="#FFF" d="M102.33 698.733c.707-.2 1.443-.307 2.18-.317h26.32c1.7.008 3.453.56 4.673 1.787 1.27 1.313 1.947 3.146 2 4.957-.007 5.006-.003 10.014 0 15.017-.013 1.8-.767 3.644-2.204 4.77-1.358 1.07-3.095 1.606-4.81 1.638-8.55.003-17.1-.008-25.65.006-1.51.04-3.092-.18-4.38-1.024-1.91-1.21-2.896-3.52-2.966-5.72.013-5.124-.01-10.25.013-15.377.072-2.75 2.182-5.12 4.822-5.736m9.92 6.224c.002 5.047-.008 10.096.006 15.143 4.29-2.54 8.6-5.046 12.893-7.582-4.308-2.51-8.585-5.067-12.9-7.56z"/></svg>