<svg xmlns="http://www.w3.org/2000/svg" width="55" height="39" viewBox="-34.5 560.5 55 39"><path fill="#E92706" d="M19.91 568.953s-.54-3.78-2.183-5.442c-2.085-2.182-4.422-2.193-5.494-2.32-7.676-.555-19.202-.486-19.202-.486s-11.525-.068-19.202.487c-1.07.127-3.41.14-5.494 2.32-1.644 1.663-2.182 5.443-2.182 5.443s-.55 4.435-.653 8.873v4.16c.102 4.438.652 8.873.652 8.873s.532 3.78 2.182 5.44c2.085 2.184 4.83 2.114 6.05 2.344 4.313.412 18.16.51 18.64.516.006 0 11.537.017 19.214-.54 1.07-.124 3.41-.136 5.494-2.32 1.644-1.66 2.183-5.44 2.183-5.44s.55-4.44.584-8.874v-4.16c-.04-4.438-.59-8.873-.59-8.873z"/><path fill="#FAFAFA" d="M-12.57 572.144v15.466l14.744-7.732"/><radialGradient id="a" cx="202.356" cy="-384.185" r="16.64" gradientTransform="matrix(1 0 0 -1 -215 188)" gradientUnits="userSpaceOnUse"><stop offset="0" stop-color="#262626" stop-opacity=".4"/><stop offset="1" stop-color="#262626" stop-opacity=".05"/></radialGradient><path fill="url(#a)" d="M-12.57 572.144l12.946 8.69 1.798-.945-14.745-7.746z"/><path fill="#FFF" fill-opacity=".2" d="M19.91 568.953s-.54-3.78-2.183-5.442c-2.085-2.182-4.422-2.193-5.494-2.32-7.676-.555-19.202-.486-19.202-.486s-11.525-.068-19.202.487c-1.07.127-3.41.14-5.494 2.32-1.644 1.663-2.182 5.443-2.182 5.443s-.55 4.435-.653 8.873v.286c.102-4.438.652-8.873.652-8.873s.532-3.78 2.182-5.443c2.085-2.183 4.423-2.194 5.494-2.32 7.677-.555 19.203-.486 19.203-.486s11.527-.067 19.203.488c1.07.125 3.408.137 5.494 2.32 1.644 1.66 2.183 5.44 2.183 5.44s.55 4.44.584 8.874v-.286c-.035-4.438-.584-8.873-.584-8.873z"/><path fill="#3E2723" fill-opacity=".2" d="M19.91 590.904s-.54 3.78-2.183 5.443c-2.085 2.182-4.422 2.193-5.494 2.32-7.676.555-19.202.486-19.202.486s-11.525.068-19.202-.486c-1.07-.127-3.41-.14-5.494-2.32-1.644-1.662-2.182-5.443-2.182-5.443s-.55-4.433-.653-8.873v-.285c.102 4.44.652 8.873.652 8.873s.532 3.78 2.182 5.442c2.085 2.183 4.423 2.194 5.494 2.32 7.677.556 19.203.487 19.203.487s11.527.068 19.203-.487c1.07-.126 3.408-.138 5.494-2.32 1.644-1.66 2.183-5.442 2.183-5.442s.55-4.438.584-8.873v.286c-.035 4.442-.584 8.874-.584 8.874z"/><path fill="#FFF" fill-opacity=".2" d="M-12.57 587.61v.287l14.744-7.733v-.286"/><path fill="#3E2723" fill-opacity=".2" d="M-12.57 572.144v-.287l14.744 7.735v.286"/><radialGradient id="b" cx="183.471" cy="-375.434" r="59.362" gradientTransform="matrix(1 0 0 -1 -215 188)" gradientUnits="userSpaceOnUse"><stop offset="0" stop-color="#FFF"/><stop offset="1" stop-color="#FFF" stop-opacity="0"/></radialGradient><path fill="url(#b)" fill-opacity=".1" d="M19.91 568.953s-.54-3.78-2.183-5.442c-2.085-2.182-4.422-2.193-5.494-2.32-7.676-.555-19.202-.486-19.202-.486s-11.525-.068-19.202.487c-1.07.127-3.41.14-5.494 2.32-1.644 1.663-2.182 5.443-2.182 5.443s-.55 4.435-.653 8.873v4.16c.102 4.438.652 8.873.652 8.873s.532 3.78 2.182 5.44c2.085 2.184 4.83 2.114 6.05 2.344 4.313.412 18.16.51 18.64.516.006 0 11.537.017 19.214-.54 1.07-.124 3.41-.136 5.494-2.32 1.644-1.66 2.183-5.44 2.183-5.44s.55-4.44.584-8.874v-4.16c-.04-4.438-.59-8.873-.59-8.873z"/></svg>