<?xml version="1.0" encoding="utf-8"?>
<!-- Generator: Adobe Illustrator 16.0.0, SVG Export Plug-In . SVG Version: 6.00 Build 0)  -->
<!DOCTYPE svg PUBLIC "-//W3C//DTD SVG 1.1//EN" "http://www.w3.org/Graphics/SVG/1.1/DTD/svg11.dtd">
<svg version="1.1" id="YouTube_Icon" xmlns="http://www.w3.org/2000/svg" xmlns:xlink="http://www.w3.org/1999/xlink" x="0px"
	 y="0px" width="79.2573px" height="55.7446px" viewBox="0 0 79.2573 55.7446" enable-background="new 0 0 79.2573 55.7446"
	 xml:space="preserve">
<path id="Triangle" fill="#FFFFFF" d="M31.4424,38.1528l21.4155-11.0957L31.4424,15.8838V38.1528z"/>
<path id="The_Sharpness" opacity="0.12" fill-rule="evenodd" clip-rule="evenodd" d="M31.4424,15.8838l18.7808,12.5405
	l2.6348-1.3672L31.4424,15.8838z"/>
<g id="Lozenge">
	<g>
		<path fill="#282928" d="M78.4653,12.0259c0,0-0.7744-5.4619-3.1504-7.8672c-3.0137-3.1567-6.3916-3.1724-7.9414-3.3574
			C56.2827,0,39.646,0,39.646,0h-0.0347c0,0-16.6367,0-27.728,0.8013C10.334,0.9863,6.9575,1.002,3.9424,4.1587
			c-2.3765,2.4053-3.1499,7.8672-3.1499,7.8672S0,18.4395,0,24.853v6.0127c0,6.4141,0.7925,12.8281,0.7925,12.8281
			s0.7734,5.4619,3.1499,7.8672c3.0151,3.1562,6.9751,3.0566,8.7393,3.3877c6.3403,0.6074,26.9473,0.7959,26.9473,0.7959
			s16.6538-0.0254,27.7446-0.8271c1.5498-0.1846,4.9277-0.2002,7.9414-3.3564c2.376-2.4053,3.1504-7.8672,3.1504-7.8672
			s0.792-6.4141,0.792-12.8281V24.853C79.2573,18.4395,78.4653,12.0259,78.4653,12.0259z M31.4463,38.1528l-0.0039-22.269
			l21.4155,11.1733L31.4463,38.1528z"/>
	</g>
</g>
</svg>
