<?xml version="1.0" encoding="utf-8"?>
<!-- Generator: Adobe Illustrator 16.0.0, SVG Export Plug-In . SVG Version: 6.00 Build 0)  -->
<!DOCTYPE svg PUBLIC "-//W3C//DTD SVG 1.1//EN" "http://www.w3.org/Graphics/SVG/1.1/DTD/svg11.dtd">
<svg version="1.1" id="Layer_1" xmlns="http://www.w3.org/2000/svg" xmlns:xlink="http://www.w3.org/1999/xlink" x="0px" y="0px"
	 width="63px" height="63px" viewBox="0 0 63 63" enable-background="new 0 0 63 63" xml:space="preserve">
<g>
	<g>
		<path d="M46.016,24.921l-14.54,12.086L16.984,24.921c-0.66-0.567-1.606-0.473-2.125,0.188c-0.521,0.66-0.473,1.604,0.188,2.123
			l15.483,12.889c0.283,0.235,0.614,0.331,0.992,0.331c0.332,0,0.708-0.095,0.991-0.331l15.438-12.889
			c0.66-0.52,0.708-1.508,0.189-2.123C47.574,24.45,46.63,24.354,46.016,24.921z"/>
	</g>
	<g>
		<path d="M31.5,0C48.869,0,63,14.131,63,31.5S48.869,63,31.5,63S0,48.869,0,31.5S14.131,0,31.5,0z M31.5,60
			C47.215,60,60,47.215,60,31.5S47.215,3,31.5,3S3,15.785,3,31.5S15.785,60,31.5,60z"/>
	</g>
</g>
</svg>
